<svg width="822" height="1696" viewBox="0 0 822 1696" fill="none" xmlns="http://www.w3.org/2000/svg">
<path fill-rule="evenodd" clip-rule="evenodd" d="M786 116C786 71.8 750.2 36 706 36H631C624.373 36 619 41.3726 619 48V54C619 78.4 599.4 98 575 98H247C222.6 98 203 78.4 203 54V48C203 41.3726 197.627 36 191 36H116C71.8 36 36 71.8 36 116V1580C36 1624.2 71.8 1660 116 1660H706C750.2 1660 786 1624.2 786 1580V116ZM116 0H706C770 0 822 52 822 116V1580C822 1644 770 1696 706 1696H116C52 1696 0 1644 0 1580V116C0 52 52 0 116 0Z" fill="#333333"/>
<g opacity="0.2">
<path d="M515 54C515 61.732 508.732 68 501 68C493.268 68 487 61.732 487 54C487 46.268 493.268 40 501 40C508.732 40 515 46.268 515 54Z" fill="white"/>
<path d="M366 48C362.686 48 360 50.6863 360 54C360 57.3137 362.686 60 366 60H454C457.314 60 460 57.3137 460 54C460 50.6863 457.314 48 454 48H366Z" fill="white"/>
</g>
</svg>
